<?xml version="1.0" standalone="no"?>
<!DOCTYPE svg PUBLIC "-//W3C//DTD SVG 20010904//EN"
 "http://www.w3.org/TR/2001/REC-SVG-20010904/DTD/svg10.dtd">
<svg version="1.0" xmlns="http://www.w3.org/2000/svg"
 width="1600.000000pt" height="900.000000pt" viewBox="0 0 1600.000000 900.000000"
 preserveAspectRatio="xMidYMid meet">

<g transform="translate(0.000000,900.000000) scale(0.100000,-0.100000)"
fill="#000000" stroke="none">
<path d="M12362 5684 l-22 -15 0 -1118 c0 -949 2 -1120 14 -1137 13 -17 28
-19 174 -19 120 0 163 3 175 14 16 12 17 104 17 1137 l0 1123 -22 15 c-18 13
-52 16 -168 16 -116 0 -150 -3 -168 -16z"/>
<path d="M10755 5677 c-84 -22 -147 -58 -211 -121 -116 -116 -162 -259 -171
-533 l-6 -173 -71 0 c-113 0 -116 -4 -116 -159 0 -159 2 -161 113 -161 l77 0
0 -549 c0 -607 -4 -574 64 -586 18 -4 90 -5 160 -3 120 3 129 4 147 27 18 22
19 47 19 567 l0 544 128 0 c167 0 162 -5 162 162 0 163 5 158 -164 158 l-128
0 4 173 c3 160 5 175 28 221 38 76 65 91 165 91 62 0 88 4 99 15 20 21 78 233
74 273 -5 49 -39 60 -193 64 -83 1 -148 -2 -180 -10z"/>
<path d="M5361 5621 c-21 -13 -23 -2197 -2 -2214 19 -16 627 -22 826 -8 163
12 272 34 392 81 286 110 518 353 606 635 44 137 51 192 51 365 1 230 -38 402
-131 582 -159 310 -455 500 -866 557 -94 13 -856 15 -876 2z m954 -395 c233
-64 399 -230 477 -476 20 -66 23 -95 23 -235 0 -184 -12 -243 -75 -371 -83
-171 -250 -290 -471 -339 -49 -10 -149 -18 -296 -22 l-223 -6 0 738 0 737 253
-5 c191 -3 266 -8 312 -21z"/>
<path d="M11429 5461 l-24 -19 0 -294 0 -293 -91 -5 c-56 -3 -97 -10 -108 -19
-13 -11 -16 -36 -16 -152 0 -137 0 -139 25 -155 21 -14 40 -16 99 -11 58 5 76
3 86 -8 9 -11 10 -134 5 -537 -9 -635 -27 -571 161 -576 70 -2 142 -1 160 3
68 12 64 -20 64 576 l0 539 143 0 c196 0 187 -8 187 170 0 178 9 170 -187 170
l-143 0 0 295 c0 282 -1 296 -20 315 -18 18 -33 20 -169 20 -132 0 -151 -2
-172 -19z"/>
<path d="M9015 4870 c-421 -85 -660 -634 -484 -1110 62 -166 202 -310 353
-360 128 -42 315 -44 433 -4 77 26 183 83 255 136 37 27 72 47 78 43 5 -3 10
-37 10 -74 0 -104 3 -105 161 -110 140 -3 202 7 213 36 4 9 4 324 0 700 -5
503 -10 688 -19 700 -9 13 -35 17 -118 21 -192 8 -222 -5 -234 -107 -3 -28 -9
-51 -14 -51 -4 0 -41 24 -81 53 -83 59 -165 99 -253 122 -63 16 -230 19 -300
5z m398 -334 c102 -37 170 -93 213 -178 23 -45 24 -57 24 -230 l0 -183 -29
-50 c-73 -127 -211 -193 -380 -183 -97 6 -172 38 -244 107 -142 134 -177 354
-86 532 23 45 87 119 131 150 88 63 249 78 371 35z"/>
<path d="M8156 4845 c-97 -27 -199 -118 -265 -237 -14 -26 -29 -48 -32 -48 -7
0 -13 47 -25 177 -9 105 -14 108 -181 108 -130 0 -135 -1 -154 -24 -18 -22
-19 -48 -19 -706 0 -755 -4 -708 64 -720 18 -4 88 -5 154 -3 176 5 162 -27
162 352 0 350 7 405 64 521 42 85 107 155 178 191 45 23 68 28 148 30 70 2 97
7 106 18 17 24 58 215 59 276 0 48 -3 56 -25 67 -32 17 -170 15 -234 -2z"/>
<path d="M12965 4843 c-31 -8 -45 -23 -45 -49 0 -17 292 -709 521 -1232 l19
-43 -76 -167 c-181 -398 -195 -432 -189 -451 3 -10 13 -22 23 -26 28 -11 314
-6 328 6 7 6 35 63 62 127 27 64 111 263 187 442 75 179 198 469 272 645 227
536 283 675 283 699 0 40 -24 49 -139 54 -124 5 -169 -6 -193 -46 -9 -15 -43
-92 -76 -172 -104 -252 -263 -615 -273 -625 -6 -6 -13 -5 -19 5 -9 15 -161
395 -259 650 -76 198 -58 185 -248 186 -87 1 -167 -1 -178 -3z"/>
</g>
</svg>
